<?xml version="1.0" encoding="utf-8"?>
<!-- Generator: Adobe Illustrator 21.0.0, SVG Export Plug-In . SVG Version: 6.00 Build 0)  -->
<svg version="1.1" id="Layer_1" xmlns="http://www.w3.org/2000/svg" xmlns:xlink="http://www.w3.org/1999/xlink" x="0px" y="0px"
	 viewBox="0 0 500 500" style="enable-background:new 0 0 500 500;" xml:space="preserve">
<style type="text/css">
	.st0{fill:#A08353;}
	.st1{fill:#FFFFFF;}
</style>
<path class="st0" d="M133.5,490.6c104.1-0.3,208.1-0.2,312.2-0.2c2.6,0,5.2-0.4,8.2-0.6C444.1,329.5,434.3,170,424.5,9.4
	c-4.3,0-7.6,0-10.9,0c-89.1,0.1-178.1,0.8-267.2-0.1h-0.1L64.4,42.5l9.1,55.7l21.6,30.8c-12.2,85.4-24.8,170.7-37.2,256
	c-3.9,26.6-7.7,53.1-11.8,80.9c16.6,0,46.1,1,61.8-0.3L133.5,490.6z M125,461.6c-0.6,0.2-1.1,0.3-1.7,0.5
	c-8.1-14.9-16.2-29.9-24.6-45.2c-12.2,8.1-23.9,15.9-37.1,24.7c2.6-18.1,4.8-34.8,7.3-51.4c13.1-89.5,26.8-178.9,38.9-268.5
	c2.8-20.7,0.1-42.1-0.2-63.2c-0.1-7.9-0.7-15.9-0.5-23.8l6.3,0c1,28.7,1.9,57.4,2.6,86.2c3,109.7,6,219.4,8.9,329.1
	C125.1,453.8,125,457.7,125,461.6z"/>
<g>
	<path class="st1" d="M365.8,230.3L365.8,230.3c-2.3-0.7-4.7-1.3-7-1.8c0.4-1.6,0.8-3.2,1.1-4.8c5.3-26.1,1.8-46.7-10-52.8
		c-11.4-5.9-30,2-48.7,19.5c-1.9,1.7-3.7,3.5-5.4,5.3c-1.2-1.1-2.4-2.1-3.6-3.1c-19.7-16.3-39.4-22.5-51.3-15
		c-11.4,7.2-14.7,27-9.9,51.1c0.5,2.4,1,4.8,1.6,7.1c-2.8,1-5.5,2-8.1,3c-23.1,9.4-37.8,22.9-37.8,35.9c0,13.5,15.8,26.1,39.9,32.9
		c1.9,0.5,3.9,1,5.9,1.5c-0.6,2.6-1.2,5.2-1.7,7.9c-4.6,24.3-1,43.1,10.3,49c11.7,6.1,31.3-2,50.5-19.9c1.5-1.4,3-2.9,4.5-4.5
		c1.9,1.7,3.9,3.4,5.9,5c18.5,14.9,36.8,20.2,48.1,13c11.7-7.5,15.5-28.2,10.6-52.8c-0.4-1.9-0.8-3.8-1.3-5.7c1.4-0.5,2.7-1,4.1-1.5
		c25-9.7,41.2-24.1,41.2-37.8C404.6,248.8,389.4,237,365.8,230.3z M307.3,197c16.1-14.9,31.1-21.4,38-17.8l0,0
		c7.3,3.8,10.1,20.6,5.6,43.1c-0.3,1.5-0.6,2.9-1,4.4c-9-1.6-18.9-2.5-29.1-2.9c-6-8.2-12.2-15.6-18.4-21.9
		C303.9,200.2,305.6,198.6,307.3,197z M251,282.1c2,3.7,4,7.3,6.2,10.9c2.2,3.7,4.5,7.3,6.8,10.8c-7.1-0.4-13.9-1.1-20.1-2.1
		C245.9,295.4,248.2,288.8,251,282.1z M251,260.2c-2.7-6.3-5-12.5-6.9-18.5c6.2-1.8,12.8-3.3,19.8-4.5c-2.3,3.7-4.5,7.5-6.7,11.4
		C255,252.4,253,256.3,251,260.2z M255.9,270.8c2.9-6.1,6-12.2,9.3-18.1v0c3.3-5.9,6.8-11.8,10.6-17.4c6.5-0.9,13.1-1.5,19.8-1.9
		c6.7-0.4,13.4-0.5,19.9-0.4c3.7,5.2,7.2,10.6,10.5,16.2c3.3,5.5,6.5,11.2,9.4,16.9c-2.9,6.2-6,12.2-9.4,18.2l0,0
		c-3.3,5.9-6.8,11.8-10.5,17.5c-6.5,0.8-13.1,1.5-20,1.9c-6.8,0.4-13.4,0.6-19.7,0.5c-3.8-5.3-7.3-10.7-10.7-16.3
		C261.9,282.3,258.8,276.6,255.9,270.8z M334.1,288.4c2.2-3.9,4.3-7.9,6.3-11.9h0c2.9,6.5,5.4,12.7,7.3,18.7
		c-6.3,1.8-13.1,3.4-20.3,4.7C329.7,296.1,331.9,292.3,334.1,288.4z M340.3,255c-2-3.7-4.1-7.4-6.3-11c-2.1-3.6-4.3-7.1-6.6-10.5
		c7,0.5,13.6,1.2,19.9,2.3C345.4,241.9,343.1,248.3,340.3,255z M295.7,208.9c4.3,4.4,8.6,9.3,12.8,14.7c-8.6,0.1-17.2,0.6-25.8,1.5
		C287,219.3,291.4,213.9,295.7,208.9z M245.5,185.3c7.3-4.6,23.4,0.4,40.4,14.5c1.1,0.9,2.2,1.8,3.3,2.8
		c-6.3,7.2-12.6,15.3-18.6,24.1c-10.3,1.6-20.1,3.7-29.1,6.2c-0.6-2.2-1.1-4.4-1.5-6.6v0C236,205.6,238.7,189.6,245.5,185.3z
		 M234.9,300c-1.8-0.4-3.6-0.9-5.4-1.4c-10.6-3-19.4-7.2-25.4-12c-5.4-4.3-8.1-8.7-8.1-12.5c0-7.9,11.8-18.8,31.6-26.8
		c2.5-1,5-1.9,7.5-2.8c2.7,8.7,6.3,17.8,10.6,26.9C241.3,281.2,237.6,290.9,234.9,300z M285.3,339.5c-8.5,7.9-16.9,13.6-24.4,16.7
		l0,0c-6.7,2.8-12.1,3.1-15.3,1.5c-6.9-3.6-9.7-18.7-5.8-39.5c0.5-2.5,1-4.9,1.6-7.3c8.9,1.5,18.8,2.3,29.4,2.5
		c6,8.1,12.3,15.6,18.7,22C288.1,336.8,286.8,338.2,285.3,339.5z M296,328.3c-4.4-4.5-8.8-9.5-13.1-14.9c4.2-0.1,8.4-0.2,12.8-0.5
		c4.4-0.3,8.8-0.6,13.2-1.1C304.5,317.9,300.2,323.4,296,328.3z M352.5,338c-1.3,7.1-3.9,11.9-7.1,13.9c-6.9,4.4-21.6,0.1-37.4-12.6
		c-1.8-1.5-3.6-3-5.5-4.7c6.1-7.1,12.3-15.2,18.3-24.3c10.5-1.6,20.5-3.7,29.5-6.3c0.4,1.8,0.8,3.5,1.2,5.2
		C353.7,320.2,354,330.1,352.5,338z M360.4,291L360.4,291c-1.2,0.5-2.4,0.9-3.7,1.4c-2.8-8.6-6.5-17.6-11-27
		c4.3-9.6,7.9-19,10.6-27.8c2.2,0.5,4.4,1.1,6.5,1.7c20.2,5.8,32.5,15.3,32.5,23.2C395.3,270.9,382,282.6,360.4,291z"/>
	<path class="st1" d="M295.6,287.8c10.7-0.6,19.5-9.9,19.5-20.6c0-10.7-8.7-19-19.5-18.3c-10.7,0.6-19.5,9.9-19.5,20.6
		C276.2,280.2,284.9,288.4,295.6,287.8z"/>
</g>
</svg>
